<svg version="1.1" xmlns="http://www.w3.org/2000/svg" xmlns:xlink="http://www.w3.org/1999/xlink" x="0px" y="0px"
	 viewBox="0 0 612 612" style="enable-background:new 0 0 612 612;" xml:space="preserve">
	<path style="fill:#D1C4E9;" d="M483.48,192.78c0-6.12-2.145-11.22-6.429-15.3s-9.28-6.12-14.994-6.12H154.836
		c-5.712,0-10.71,2.04-14.994,6.12s-6.426,9.18-6.426,15.3v187.271c0,5.712,2.142,10.71,6.426,14.994s9.282,6.426,14.994,6.426
		h104.652v32.438h-24.48c-4.08,0-6.12,2.04-6.12,6.12v13.464c0,4.08,2.04,6.12,6.12,6.12h143.82c4.08,0,6.12-2.04,6.12-6.12
		v-13.464c0-4.08-2.04-6.12-6.12-6.12h-24.48v-32.438H462.06c5.714,0,10.71-2.142,14.994-6.426s6.429-9.282,6.429-14.994
		L483.48,192.78L483.48,192.78z M306,0c42.024,0,81.702,8.058,119.034,24.174s69.768,37.944,97.308,65.484
		s49.368,59.976,65.484,97.308S612,263.976,612,306c0,28.152-3.672,55.284-11.016,81.396
		c-7.347,26.109-17.646,50.487-30.906,73.134c-13.26,22.644-29.172,43.248-47.736,61.812
		c-18.562,18.564-39.168,34.479-61.812,47.736c-22.646,13.26-47.022,23.562-73.136,30.906C361.284,608.328,334.152,612,306,612
		s-55.284-3.672-81.396-11.016c-26.112-7.347-50.49-17.646-73.134-30.906s-43.248-29.172-61.812-47.736
		c-18.564-18.562-34.476-39.168-47.736-61.812c-13.26-22.646-23.562-47.022-30.906-73.135C3.672,361.284,0,334.152,0,306
		s3.672-55.284,11.016-81.396s17.646-50.49,30.906-73.134s29.172-43.248,47.736-61.812s39.168-34.476,61.812-47.736
		s47.022-23.562,73.134-30.906S277.848,0,306,0z M176.256,214.2H440.64v144.432H176.256V214.2z"/>
</svg>
